PathFileType	4	(X/Y/Z)	Patient4_TMGait_0pt3_01_right_04.trc.trc
DataRate	CameraRate	NumFrames	NumMarkers	Units	OrigDataRate	OrigDataStartFrame	OrigNumFrames
52.830188679245	52.830188679245	5	33	mm	52.830188679245	89	       141
Frame#	Time	Sacral			L.Shoulder			Chest			R.Shoulder			Neck			R.ASIS			L.ASIS			R.Thigh.Superior			R.Thigh.Lateral			R.Thigh.Inferior			R.Patella			L.Thigh.Superior			L.Thigh.Lateral			L.Thigh.Inferior			L.Patella			L.Shank.Superior			L.Shank.Lateral			L.Shank.Inferior			R.Shank.Superior			R.Shank.Lateral			R.Shank.Inferior			R.Heel			R.Midfoot.Superior			R.Midfoot.Lateral			R.Toe			L.Heel			L.Midfoot.Lateral			L.Midfoot.Superior			L.Toe			L.Elbow			L.Wrist			R.Elbow			R.Wrist			
		X1	Y1	Z1	X2	Y2	Z2	X3	Y3	Z3	X4	Y4	Z4	X5	Y5	Z5	X6	Y6	Z6	X7	Y7	Z7	X8	Y8	Z8	X9	Y9	Z9	X10	Y10	Z10	X11	Y11	Z11	X12	Y12	Z12	X13	Y13	Z13	X14	Y14	Z14	X15	Y15	Z15	X16	Y16	Z16	X17	Y17	Z17	X18	Y18	Z18	X19	Y19	Z19	X20	Y20	Z20	X21	Y21	Z21	X22	Y22	Z22	X23	Y23	Z23	X24	Y24	Z24	X25	Y25	Z25	X26	Y26	Z26	X27	Y27	Z27	X28	Y28	Z28	X29	Y29	Z29	X30	Y30	Z30	X31	Y31	Z31	X32	Y32	Z32	X33	Y33	Z33	

89	7.555714285714	845.305883051886	1005.829771093449	489.587206170407	1001.202668829516	1424.159813798176	281.523538481260	1117.162525500071	1364.343797166802	437.258089980706	1046.879306200265	1446.718816337921	612.497549160144	998.929777410153	1493.661797422935	432.403829982605	1077.094606076656	939.410172689802	598.594150322943	1054.104948906816	959.148785004760	324.574557711022	1077.249811672645	725.791402441537	580.029499048615	974.290339917733	631.652280680004	644.017353902480	1040.199990650532	562.261142189004	570.457486414947	1019.362918252233	467.975495791606	583.273767159761	1118.650234549562	757.623175163782	362.908206734255	1044.740489057437	632.266387910321	302.549857208553	1136.331894301595	564.080158252046	367.627533582047	1142.846729744191	492.462712970069	376.316636687917	1114.131445321595	418.573998332516	369.490137059026	1024.862699248110	304.685543858381	318.184647025907	1072.985431637644	192.705517471227	388.783740356661	959.473582982956	393.579027781701	590.963639136561	854.412902695701	322.861810637299	652.347496758004	866.445157423547	215.120009747260	598.028380123876	689.457516595832	86.659767357934	568.263033116242	865.738673960140	104.387055364245	613.190298090677	765.704587357649	61.646033337744	645.956436827609	969.348436220092	36.939329690178	647.024512253571	943.049728279920	38.547937147290	428.634311678323	1017.479005842128	36.561588776308	348.386436872290	1101.063042302968	96.599133013709	376.498270572059	1229.081268204844	44.214962440495	347.736814238362	975.369480994606	1070.199972742041	171.201974396039	1098.828272240407	839.695937470730	164.256093545576	1153.141540546674	1121.233826292636	739.519199845186	1405.222932759806	1084.752667755677	708.823690881139	
90	7.574642857143	845.097220574002	1005.935848232376	484.814852999106	1002.306636464551	1424.932258529216	278.502680567063	1116.760124194758	1365.005408586860	435.285379631897	1044.726141208450	1446.995141012498	609.994865876903	998.450223461291	1494.122884683347	429.595217035942	1076.217368642519	939.893153600086	595.271861151922	1055.157827591445	959.452733823557	321.291952828079	1077.978985009615	726.506322853067	577.778215372284	975.586226115331	632.032406991912	641.814105210510	1042.634707531977	562.523480130960	569.049734418484	1022.253000952950	467.221281155338	583.124424840225	1118.540126921864	756.945843498296	359.927001723702	1043.477089615959	631.897759223392	300.250201642842	1134.326086582514	563.161359259868	365.670159462085	1140.271549780869	491.567180676391	374.779930757656	1111.033404721084	417.796544886549	368.220299119419	1021.128068836813	304.299589825407	317.255352125093	1068.143538891110	192.303434334890	388.441857710964	960.669786727079	393.744141778947	590.585240447771	853.865302165393	325.293694793334	651.493436890623	864.760159742317	216.800574512014	598.130382176787	685.623639699092	91.422110134016	568.312820399808	862.249257578821	105.032609241033	613.550681895930	761.198012003941	64.429808410828	645.987032827824	963.886351936716	36.779132907724	647.014542492596	937.355818404463	38.606085087386	428.630685769568	1011.771183432993	36.554951283849	348.379944987058	1095.451296507008	96.502677197804	376.464147617624	1223.432750969074	43.852565835623	347.710632844503	986.083450151066	1071.479719803025	164.712134671619	1114.755422783003	844.035869595854	157.194492621034	1142.935998249847	1118.529803497052	738.236180955883	1392.750580251335	1065.015340299202	711.816102236897	
91	7.593571428571	844.735235671427	1005.949262927730	479.983556118715	1003.419262119803	1425.649948139631	275.628927905175	1116.250255397212	1365.580635161046	433.497755914886	1042.350047328197	1447.126684956504	607.626886012645	997.885119234325	1494.493907690985	426.923074648253	1075.178980863036	940.302055118271	592.049810695627	1056.198279639985	959.681004021551	318.127009459426	1078.994252821429	727.221065935330	575.601063973606	977.406724792008	632.244508039513	639.661553255992	1045.764005732550	562.757355141379	567.673709247189	1025.916184841871	466.354909987442	583.060099066963	1118.479175719533	756.265725986832	357.115141846008	1042.292594225662	631.504035842202	297.986667679688	1132.385205298484	562.232519791257	363.798834166035	1137.776692587667	490.647841928187	373.290037522212	1107.993540416705	416.992142285256	366.977020566142	1017.422447633570	303.910508610552	316.300233677527	1063.313701480343	191.894644272706	388.092638407468	962.599632121644	393.834399177546	590.256945031047	853.962857399169	327.881485672631	650.610153897707	863.542142535524	218.641662138886	598.221392831036	682.169948588919	96.789727074859	568.209132652632	858.988011880812	105.818885787790	613.867784189762	756.870067296109	67.682847750289	645.918842849976	958.380653386285	36.577933429156	647.037853298058	931.663801511816	38.665736842615	428.617877746431	1006.066963659073	36.546220549874	348.365874927205	1089.831163895290	96.416765996843	376.423487489738	1217.784568811574	43.525936568474	347.691053826089	996.633952868311	1072.956095682381	158.624993853178	1130.432153516226	848.677908915137	150.611276760753	1132.005372989260	1115.792079833243	737.097054577356	1378.028921459674	1044.510829354532	715.109074624406	
92	7.612500000000	844.219474809240	1005.831428372977	475.114611235585	1004.565474008676	1426.274673822186	272.910960696454	1115.634969984279	1366.032677993419	431.914391512427	1039.738602015728	1447.084018588214	605.397667000322	997.245669549319	1494.747086819769	424.387008957719	1073.968766884908	940.625696384816	588.985408023734	1057.212541016077	959.821789294659	315.101497405289	1080.359007436789	727.945318004573	573.491927495035	979.869990277161	632.268689616683	637.569928209176	1049.712490131240	562.971211401591	566.323572398649	1030.487024903673	465.382030466321	583.055010237603	1118.467801813467	755.579510689077	354.500781166386	1041.221286330214	631.069815290357	295.768188766458	1130.547460728232	561.292205839299	362.040339324662	1135.411404598908	489.691877743764	371.858371821850	1105.047201342100	416.145689502351	365.769284399994	1013.768531064084	303.516722659527	315.327143963919	1058.513887029535	191.473150973846	387.734650418516	965.388092529978	393.847578041730	589.950109439029	854.833600705692	330.651773391510	649.660812272677	862.880720112674	220.696859144324	598.253254497860	679.197759245904	102.924435713538	567.851257774290	855.996419491683	106.846157322284	614.096860873447	752.766436236077	71.562285742083	645.676184579241	952.823134057997	36.311214749870	647.105361310090	925.974189757787	38.727640051555	428.592547842664	1000.367812623747	36.535952219832	348.342377423648	1084.204449561564	96.339786788179	376.375037117317	1212.137590622305	43.230626724329	347.676773355479	1006.944541884209	1074.563976467596	152.979887383449	1145.810514188093	853.557116768590	144.591921222086	1120.406093308903	1113.028570928995	736.026180806136	1360.962244530945	1023.438506227131	718.600764267701	
93	7.631428571429	843.557615576593	1005.532856078841	470.248211287147	1005.760744957421	1426.763451937994	270.361243978386	1114.912659297718	1366.320591327822	430.554271098414	1036.882988404974	1446.833410561405	603.315122096048	996.540316638443	1494.850112184346	421.990119272974	1072.584951188335	940.846445321726	586.124485203752	1058.176233581030	959.856409529729	312.233208482364	1082.121380564330	728.689315920393	571.444190291824	983.065272983978	632.095511341408	635.550964476021	1054.563769183350	563.178024592241	564.996051201880	1036.059936488996	464.320299578815	583.082640812690	1118.499257689403	754.878001964017	352.092384801924	1040.293068168340	630.573667616761	293.602603143648	1128.858358070210	560.335756170240	360.404356514738	1133.233577828918	488.682418435584	370.481306666143	1102.236526716723	415.237269412180	364.596285975003	1010.188402676471	303.115065623887	314.340872208361	1053.761887949056	191.031573274324	387.363087699644	969.124976463864	393.787536134648	589.633023434802	856.577444401154	333.622995544852	648.603261823711	862.850680681997	223.016612289582	598.168678081722	676.809860654186	109.959813802047	567.123633298223	853.317323817716	108.222870027061	614.186329659208	748.939096822360	76.210800695161	645.169108548283	947.215358948441	35.962807242858	647.222424961936	920.286672347222	38.793122565360	428.552022351271	994.674223981751	36.524366970264	348.307798427583	1078.573804565628	96.269189689247	376.316372656011	1206.491972960825	42.959625763878	347.665816181745	1016.961259166635	1076.227042440566	147.803111317669	1160.846280593106	858.591040454717	139.214546425176	1108.186738215009	1110.236289566966	734.952423315436	1341.488543944431	1002.043050479239	722.182341812181	
